<svg width="2187" height="2191" xmlns="http://www.w3.org/2000/svg" xmlns:xlink="http://www.w3.org/1999/xlink" xml:space="preserve" overflow="hidden"><defs><clipPath id="clip0"><rect x="682" y="142" width="2187" height="2191"/></clipPath></defs><g clip-path="url(#clip0)" transform="translate(-682 -142)"><path d="M576.782-156.902 2775.18-156.902 2775.18 2042.38 576.782 2042.38Z" stroke="#000000" stroke-width="4.05147" stroke-miterlimit="8" fill="#FFFFFF" transform="matrix(1 0 0 1.00015 101.851 292.207)"/><path d="M661.2 1546.93 1558.42 1546.93 1558.42 1955.31 661.2 1955.31Z" stroke="#BFBFBF" stroke-width="12.1544" stroke-miterlimit="8" fill="#F2F2F2" transform="matrix(1 0 0 1.00015 101.851 292.207)"/><path d="M1643.28 1765.26 2245.25 1765.26 2245.25 1955.31 1643.28 1955.31Z" stroke="#BFBFBF" stroke-width="12.1544" stroke-miterlimit="8" fill="#F2F2F2" transform="matrix(1 0 0 1.00015 101.851 292.207)"/><path d="M2359.28 1631.79 2961.26 1631.79 2961.26 1955.31 2359.28 1955.31Z" stroke="#BFBFBF" stroke-width="12.1544" stroke-miterlimit="8" fill="#F2F2F2" transform="matrix(1 0 0 1.00015 101.851 292.207)"/><path d="M661.2 1241.08 1119.09 1241.08 1119.09 1460.3 661.2 1460.3Z" stroke="#BFBFBF" stroke-width="12.1544" stroke-miterlimit="8" fill="#F2F2F2" transform="matrix(1 0 0 1.00015 101.851 292.207)"/><path d="M1217.21 1241.08 1336.54 1241.08 1336.54 1460.3 1217.21 1460.3Z" stroke="#BFBFBF" stroke-width="12.1544" stroke-miterlimit="8" fill="#F2F2F2" transform="matrix(1 0 0 1.00015 101.851 292.207)"/><path d="M1643.28 1349.8 1982.72 1349.8 1982.72 1672.45 1643.28 1672.45Z" stroke="#BFBFBF" stroke-width="12.1544" stroke-miterlimit="8" fill="#F2F2F2" transform="matrix(1 0 0 1.00015 101.851 292.207)"/><path d="M2039.29 1349.8 2245.25 1349.8 2245.25 1672.45 2039.29 1672.45Z" stroke="#BFBFBF" stroke-width="12.1544" stroke-miterlimit="8" fill="#F2F2F2" transform="matrix(1 0 0 1.00015 101.851 292.207)"/><path d="M2360.17 1222.51 2699.61 1222.51 2699.61 1545.16 2360.17 1545.16Z" stroke="#BFBFBF" stroke-width="12.1544" stroke-miterlimit="8" fill="#F2F2F2" transform="matrix(1 0 0 1.00015 101.851 292.207)"/><path d="M405.736 746.06 746.06 746.06 746.06 1153.56 405.736 1153.56Z" stroke="#BFBFBF" stroke-width="12.1544" stroke-miterlimit="8" fill="#F2F2F2" transform="matrix(1 0 0 1.00015 101.851 292.207)"/><path d="M877.77 495.016 1217.21 495.016 1217.21 1153.56 877.77 1153.56Z" stroke="#BFBFBF" stroke-width="12.1544" stroke-miterlimit="8" fill="#F2F2F2" transform="matrix(1 0 0 1.00015 101.851 292.207)"/><path d="M405.736 495.016 746.06 495.016 746.06 624.074 405.736 624.074Z" stroke="#BFBFBF" stroke-width="12.1544" stroke-miterlimit="8" fill="#F2F2F2" transform="matrix(1 0 0 1.00015 101.851 292.207)"/><path d="M746.06 232.481 1217.21 232.481 1217.21 408.388 746.06 408.388Z" stroke="#BFBFBF" stroke-width="12.1544" stroke-miterlimit="8" fill="#F2F2F2" transform="matrix(1 0 0 1.00015 101.851 292.207)"/><path d="M1327.7 232.481 1799.74 232.481 1799.74 408.388 1327.7 408.388Z" stroke="#BFBFBF" stroke-width="12.1544" stroke-miterlimit="8" fill="#F2F2F2" transform="matrix(1 0 0 1.00015 101.851 292.207)"/><path d="M1336.54 979.425 1938.52 979.425 1938.52 1155.33 1336.54 1155.33Z" stroke="#BFBFBF" stroke-width="12.1544" stroke-miterlimit="8" fill="#F2F2F2" transform="matrix(1 0 0 1.00015 101.851 292.207)"/><path d="M1407.26 1241.08 1558.42 1241.08 1558.42 1460.3 1407.26 1460.3Z" stroke="#BFBFBF" stroke-width="12.1544" stroke-miterlimit="8" fill="#F2F2F2" transform="matrix(1 0 0 1.00015 101.851 292.207)"/><path d="M2586.46 979.425 2692.53 979.425 2692.53 1155.33 2586.46 1155.33Z" stroke="#BFBFBF" stroke-width="12.1544" stroke-miterlimit="8" fill="#F2F2F2" transform="matrix(1 0 0 1.00015 101.851 292.207)"/><path d="M2042.83 979.425 2244.37 979.425 2244.37 1256.99 2042.83 1256.99Z" stroke="#BFBFBF" stroke-width="12.1544" stroke-miterlimit="8" fill="#F2F2F2" transform="matrix(1 0 0 1.00015 101.851 292.207)"/><path d="M2348.67 746.06 2509.55 746.06 2509.55 1153.56 2348.67 1153.56Z" stroke="#BFBFBF" stroke-width="12.1544" stroke-miterlimit="8" fill="#F2F2F2" transform="matrix(1 0 0 1.00015 101.851 292.207)"/><path d="M1336.54 693.023 1938.52 693.023 1938.52 896.333 1336.54 896.333Z" stroke="#BFBFBF" stroke-width="12.1544" stroke-miterlimit="8" fill="#F2F2F2" transform="matrix(1 0 0 1.00015 101.851 292.207)"/><path d="M2586.46 258.999 2692.53 258.999 2692.53 878.654 2586.46 878.654Z" stroke="#BFBFBF" stroke-width="12.1544" stroke-miterlimit="8" fill="#F2F2F2" transform="matrix(1 0 0 1.00015 101.851 292.207)"/><path d="M2287.68 58.3412 2509.55 58.3412 2509.55 677.995 2287.68 677.995Z" stroke="#BFBFBF" stroke-width="12.1544" stroke-miterlimit="8" fill="#F2F2F2" transform="matrix(1 0 0 1.00015 101.851 292.207)"/><path d="M1336.54 491.48 1601.73 491.48 1601.73 609.931 1336.54 609.931Z" stroke="#BFBFBF" stroke-width="12.1544" stroke-miterlimit="8" fill="#F2F2F2" transform="matrix(1 0 0 1.00015 101.851 292.207)"/><path d="M1721.06 491.48 2167.46 491.48 2167.46 609.931 1721.06 609.931Z" stroke="#BFBFBF" stroke-width="12.1544" stroke-miterlimit="8" fill="#F2F2F2" transform="matrix(1 0 0 1.00015 101.851 292.207)"/><path d="M2014.54 693.023 2175.42 693.023 2175.42 912.244 2014.54 912.244Z" stroke="#BFBFBF" stroke-width="12.1544" stroke-miterlimit="8" fill="#F2F2F2" transform="matrix(1 0 0 1.00015 101.851 292.207)"/><path d="M637.333 0 1327.7 0 1327.7 145.853 637.333 145.853Z" stroke="#BFBFBF" stroke-width="12.1544" stroke-miterlimit="8" fill="#F2F2F2" transform="matrix(1 0 0 1.00015 101.851 292.207)"/><path d="M1447.92-4.41993 2039.29-4.41993 2039.29 141.433 1447.92 141.433Z" stroke="#BFBFBF" stroke-width="12.1544" stroke-miterlimit="8" fill="#F2F2F2" transform="matrix(1 0 0 1.00015 101.851 292.207)"/><path d="M1910.23 228.945 2182.49 228.945 2182.49 403.968 1910.23 403.968Z" stroke="#BFBFBF" stroke-width="12.1544" stroke-miterlimit="8" fill="#F2F2F2" transform="matrix(1 0 0 1.00015 101.851 292.207)"/><path d="M2287.68-268.723 2509.55-268.723 2509.55-92.8155 2287.68-92.8155Z" stroke="#BFBFBF" stroke-width="12.1544" stroke-miterlimit="8" fill="#F2F2F2" transform="matrix(1 0 0 1.00015 101.851 292.207)"/><path d="M2586.46-181.211 2808.33-181.211 2808.33 175.024 2586.46 175.024Z" stroke="#BFBFBF" stroke-width="12.1544" stroke-miterlimit="8" fill="#F2F2F2" transform="matrix(1 0 0 1.00015 101.851 292.207)"/><path d="M637.333-424.299 2042.83-424.299 2042.83-97.2353 637.333-97.2353Z" stroke="#BFBFBF" stroke-width="12.1544" stroke-miterlimit="8" fill="#F2F2F2" transform="matrix(1 0 0 1.00015 101.851 292.207)"/><rect x="1451" y="1872" width="173" height="108" stroke="#787878" stroke-width="10.3125" stroke-miterlimit="8" fill="#A5A5A5"/><rect x="2495" y="1546" width="94.0002" height="139" stroke="#787878" stroke-width="10.3125" stroke-miterlimit="8" fill="#A5A5A5"/><rect x="1191" y="816" width="98" height="147" stroke="#787878" stroke-width="10.3125" stroke-miterlimit="8" fill="#A5A5A5"/><rect x="2092" y="585" width="108" height="82.9998" stroke="#787878" stroke-width="10.3125" stroke-miterlimit="8" fill="#A5A5A5"/></g></svg>